<?xml version="1.0" encoding="UTF-8"?>
<svg width="131px" height="30px" viewBox="0 0 131 30" version="1.1" xmlns="http://www.w3.org/2000/svg" xmlns:xlink="http://www.w3.org/1999/xlink">
    <!-- Generator: Sketch 49.2 (51160) - http://www.bohemiancoding.com/sketch -->
    <title>S2_Black_RGB</title>
    <desc>Created with Sketch.</desc>
    <defs></defs>
    <g id="🖥-Desktop" stroke="none" stroke-width="1" fill="none" fill-rule="evenodd">
        <g id="Desktop---Login-Copy" transform="translate(-24.000000, -17.000000)" fill="#F4F7FA">
            <g id="S2_Black_RGB" transform="translate(24.000000, 17.000000)">
                <path d="M4.48466535,17.5186696 C1.79744501,17.5186696 0.405290959,16.0431947 0.331841958,13.0676178 C0.331841958,12.917694 0.380807959,12.8174567 0.52728384,12.7923974 L2.57921254,12.4422152 C2.75017142,12.4175879 2.84789236,12.5171771 2.84789236,12.6673169 C2.92134136,14.4679147 3.434218,15.1680632 4.55790329,15.1680632 C5.60813958,15.1680632 6.12122728,14.5929952 6.12122728,12.7422788 C6.12122728,10.9170538 5.77930952,10.3169265 4.48445429,9.79176115 L3.48276188,9.39146028 C1.18663636,8.46664215 0.502589779,7.24132833 0.502589779,4.59044224 C0.502800839,1.66476786 1.79765607,0.0646445373 4.53363135,0.0646445373 C7.26981769,0.0646445373 8.46674092,1.56474665 8.61342786,4.21541671 C8.61342786,4.36534051 8.53997886,4.44051844 8.39350298,4.49063706 L6.43908417,4.79091671 C6.29239723,4.81554397 6.17040434,4.74079809 6.17040434,4.59044224 C6.12143834,3.19014531 5.68158858,2.41481891 4.60708035,2.41481891 C3.581116,2.41481891 3.0925113,3.06528082 3.0925113,4.46557775 C3.0925113,6.04085779 3.38546306,6.51612055 4.70480129,7.04150194 L5.7064937,7.44158677 C7.88041528,8.31671835 8.73563181,9.51675683 8.73563181,12.41802 C8.73542075,15.7681904 7.6360074,17.5186696 4.48466535,17.5186696" id="Fill-1"></path>
                <path d="M10.0285226,0.958144014 C10.0285226,0.809954258 10.1249882,0.71108991 10.2701044,0.71108991 L12.3727222,0.71108991 C12.5176296,0.71108991 12.614304,0.809527198 12.614304,0.958144014 L12.614304,17.2711884 C12.614304,17.4195917 12.5176296,17.5186696 12.3727222,17.5186696 L10.2701044,17.5186696 C10.1249882,17.5186696 10.0285226,17.4198053 10.0285226,17.2711884 L10.0285226,0.958144014 Z" id="Fill-3"></path>
                <path d="M13.9071948,0.958144014 C13.9071948,0.809954258 14.0089571,0.71108991 14.162041,0.71108991 L16.8642481,0.71108991 C17.0682132,0.71108991 17.1699755,0.785184788 17.2210769,0.958144014 L20.4336373,12.5748116 L20.5609503,12.5748116 L20.5609503,0.958144014 C20.5609503,0.809954258 20.6631531,0.71108991 20.8160168,0.71108991 L22.702804,0.71108991 C22.8556677,0.71108991 22.95743,0.809527198 22.95743,0.958144014 L22.95743,17.2711884 C22.95743,17.4195917 22.8556677,17.5186696 22.702804,17.5186696 L20.1790113,17.5186696 C19.974826,17.5186696 19.8730637,17.4445747 19.8219623,17.2711884 L16.4565382,5.65409376 L16.3036745,5.65409376 L16.3036745,17.2709749 C16.3036745,17.4191647 16.201692,17.5182425 16.048608,17.5182425 L14.162041,17.5182425 C14.0089571,17.5182425 13.9071948,17.4195917 13.9071948,17.2709749 L13.9071948,0.958144014 Z" id="Fill-5"></path>
                <path d="M24.250541,0.958144014 C24.250541,0.809954258 24.3523058,0.71108991 24.5051732,0.71108991 L27.2076663,0.71108991 C27.4116364,0.71108991 27.5134012,0.785184788 27.5645038,0.958144014 L30.7767018,12.5748116 L30.9042382,12.5748116 L30.9042382,0.958144014 C30.9042382,0.809954258 31.0062232,0.71108991 31.1593109,0.71108991 L33.0459238,0.71108991 C33.1987912,0.71108991 33.300556,0.809527198 33.300556,0.958144014 L33.300556,17.2711884 C33.300556,17.4195917 33.1987912,17.5186696 33.0459238,17.5186696 L30.5220697,17.5186696 C30.3178793,17.5186696 30.2161146,17.4445747 30.1652322,17.2711884 L26.7997262,5.65409376 L26.6466385,5.65409376 L26.6466385,17.2709749 C26.6466385,17.4191647 26.5448738,17.5182425 26.3915658,17.5182425 L24.5049529,17.5182425 C24.3520855,17.5182425 24.2503208,17.4195917 24.2503208,17.2709749 L24.2503208,0.958144014 L24.250541,0.958144014 Z" id="Fill-7"></path>
                <path d="M34.5934467,0.958153431 C34.5934467,0.809958026 34.6974518,0.71108991 34.8530111,0.71108991 L42.0912268,0.71108991 C42.2470103,0.71108991 42.3507912,0.80953095 42.3507912,0.958153431 L42.3507912,2.86141805 C42.3507912,3.00961345 42.2472344,3.1086951 42.0912268,3.1086951 L37.5253141,3.1086951 C37.4217573,3.1086951 37.3697548,3.15823593 37.3697548,3.25689051 L37.3697548,7.68097177 C37.3697548,7.78005342 37.4217573,7.82938071 37.5253141,7.82938071 L41.4687653,7.82938071 C41.6245488,7.82938071 41.7285539,7.92803529 41.7285539,8.07665777 L41.7285539,9.97992239 C41.7285539,10.1281178 41.624773,10.2271994 41.4687653,10.2271994 L37.5253141,10.2271994 C37.4217573,10.2271994 37.3697548,10.2765267 37.3697548,10.3753949 L37.3697548,14.972869 C37.3697548,15.0715236 37.4217573,15.1210644 37.5253141,15.1210644 L42.0912268,15.1210644 C42.2470103,15.1210644 42.3507912,15.2195055 42.3507912,15.3683415 L42.3507912,17.2713925 C42.3507912,17.419588 42.2472344,17.5186696 42.0912268,17.5186696 L34.8530111,17.5186696 C34.6974518,17.5186696 34.5934467,17.4198015 34.5934467,17.2713925 L34.5934467,0.958153431 Z" id="Fill-9"></path>
                <path d="M49.5800834,5.7036327 C49.5800834,3.72634575 48.9205806,3.10860372 47.3983983,3.10860372 L46.5102943,3.10860372 C46.4092538,3.10860372 46.3579664,3.15814266 46.3579664,3.25679348 L46.3579664,8.15047193 C46.3579664,8.2495498 46.4088154,8.29887521 46.5102943,8.29887521 L47.3983983,8.29887521 C48.9205806,8.29887521 49.5800834,7.7054756 49.5800834,5.7036327 Z M50.1887371,17.5182425 C50.0366285,17.5182425 49.960355,17.4687036 49.9097252,17.3452833 L47.8043136,10.6466366 L47.3729738,10.6466366 L46.5102943,10.6466366 C46.4092538,10.6466366 46.3579664,10.6961755 46.3579664,10.7950398 L46.3579664,17.2705479 C46.3579664,17.4189511 46.2567068,17.518029 46.1041598,17.518029 L43.8970502,17.518029 C43.7449416,17.518029 43.6436819,17.4191647 43.6436819,17.2705479 L43.6436819,0.958144014 C43.6436819,0.809954258 43.7449416,0.71108991 43.8970502,0.71108991 L47.3727546,0.71108991 C50.4421054,0.71108991 52.2941487,2.02088237 52.2941487,5.7036327 C52.2941487,7.90363135 51.5329479,9.28773222 50.2391478,10.0045521 L52.6744203,17.2711884 C52.7252693,17.3946087 52.6744203,17.5186696 52.5479553,17.5186696 L50.1887371,17.5186696 L50.1887371,17.5182425 Z" id="Fill-11"></path>
                <path d="M57.4929724,17.5186696 C54.8062503,17.5186696 53.4133931,16.0431947 53.3403625,13.0676178 C53.3403625,12.917694 53.3889089,12.8174567 53.5358142,12.7923974 L55.587846,12.4422152 C55.7588135,12.4175879 55.8567504,12.5171771 55.8567504,12.6673169 C55.9297809,14.4679147 56.4426833,15.1680632 57.5668472,15.1680632 C58.6171363,15.1680632 59.1302497,14.5929952 59.1302497,12.7422788 C59.1302497,10.9170538 58.7883148,10.3169265 57.4929724,9.79176115 L56.4916518,9.39146028 C54.1951999,8.46664215 53.51133,7.24132833 53.51133,4.59044224 C53.51133,1.66476786 54.8062503,0.0646445373 57.5421519,0.0646445373 C60.2786868,0.0646445373 61.475248,1.56474665 61.6221534,4.21541671 C61.6221534,4.36534051 61.5491228,4.44051844 61.4022174,4.49063706 L59.4477005,4.79091671 C59.3012172,4.81554397 59.1792182,4.74079809 59.1792182,4.59044224 C59.1302497,3.19014531 58.6903779,2.41481891 57.6158157,2.41481891 C56.5895887,2.41481891 56.1011706,3.06528082 56.1011706,4.46557775 C56.1011706,6.04085779 56.394137,6.51612055 57.7131194,7.04150194 L58.7150732,7.44158677 C60.889104,8.31671835 61.7441524,9.51675683 61.7441524,12.41802 C61.7439413,15.7681904 60.6448949,17.5186696 57.4929724,17.5186696" id="Fill-13"></path>
                <path d="M63.0370431,8.79165707 C63.0370431,4.0653264 63.1383108,3.36516927 63.366711,2.66501214 C63.8995718,1.04002542 65.168048,0.0646445373 67.2736263,0.0646445373 C69.7349566,0.0646445373 71.2824668,1.31460108 71.4345875,4.14050526 C71.4600141,4.29043091 71.409161,4.41572901 71.2570403,4.44035657 L69.2018766,4.79075918 C69.0497559,4.81560277 68.9226234,4.74085597 68.9226234,4.56565467 C68.8463438,3.11500513 68.3395671,2.49002686 67.3499059,2.49002686 C66.588864,2.49002686 66.1826974,2.81493779 65.9799429,3.44034813 C65.8532487,3.84022188 65.8023956,4.1906245 65.8023956,8.79165707 C65.8023956,13.3926896 65.8530295,13.7426602 65.9799429,14.142966 C66.1831358,14.7679443 66.588864,15.0932873 67.3499059,15.0932873 C68.3395671,15.0932873 68.8463438,14.4678769 68.9226234,13.0176595 C68.9226234,12.8424582 69.0497559,12.7672793 69.2018766,12.792555 L71.2570403,13.1425255 C71.409161,13.1675851 71.4600141,13.2924512 71.4345875,13.4423768 C71.2824668,16.268065 69.7349566,17.5186696 67.2736263,17.5186696 C65.168048,17.5186696 63.8995718,16.5437208 63.366711,14.9178699 C63.1383108,14.2181449 63.0370431,13.5179877 63.0370431,8.79165707" id="Fill-15"></path>
                <path d="M72.7337237,0.958144014 C72.7337237,0.809954258 72.8323013,0.71108991 72.9800612,0.71108991 L75.1238569,0.71108991 C75.2720426,0.71108991 75.3704072,0.809527198 75.3704072,0.958144014 L75.3704072,7.58226884 C75.3704072,7.68070613 75.4198024,7.73067213 75.5181671,7.73067213 L78.3528573,7.73067213 C78.451009,7.73067213 78.5006172,7.68113319 78.5006172,7.58226884 L78.5006172,0.958144014 C78.5006172,0.809954258 78.5987689,0.71108991 78.7471675,0.71108991 L80.8909632,0.71108991 C81.0387231,0.71108991 81.1375136,0.809527198 81.1375136,0.958144014 L81.1375136,17.2711884 C81.1375136,17.4195917 81.0387231,17.5186696 80.8909632,17.5186696 L78.7471675,17.5186696 C78.5989818,17.5186696 78.5006172,17.4198053 78.5006172,17.2711884 L78.5006172,10.2765892 C78.5006172,10.1775113 78.451222,10.1283995 78.3528573,10.1283995 L75.5181671,10.1283995 C75.4200153,10.1283995 75.3704072,10.1775113 75.3704072,10.2765892 L75.3704072,17.2711884 C75.3704072,17.4195917 75.2722555,17.5186696 75.1238569,17.5186696 L72.9800612,17.5186696 C72.8323013,17.5186696 72.7337237,17.4198053 72.7337237,17.2711884 L72.7337237,0.958144014 Z" id="Fill-17"></path>
                <path d="M88.3662853,5.7036327 C88.3662853,3.72634575 87.706816,3.10860372 86.1844918,3.10860372 L85.2973095,3.10860372 C85.1956166,3.10860372 85.1447702,3.15814266 85.1447702,3.25679348 L85.1447702,8.15047193 C85.1447702,8.2495498 85.1956166,8.29887521 85.2973095,8.29887521 L86.1844918,8.29887521 C87.7063777,8.29887521 88.3662853,7.7054756 88.3662853,5.7036327 Z M88.974689,17.5182425 C88.8228072,17.5182425 88.7469759,17.4687036 88.6956912,17.3452833 L86.5906056,10.6466366 L86.1597261,10.6466366 L85.2973095,10.6466366 C85.1956166,10.6466366 85.1447702,10.6961755 85.1447702,10.7950398 L85.1447702,17.2705479 C85.1447702,17.4189511 85.0437349,17.518029 84.8909765,17.518029 L82.6841981,17.518029 C82.531878,17.518029 82.4304043,17.4191647 82.4304043,17.2705479 L82.4304043,0.958144014 C82.4304043,0.809954258 82.5314397,0.71108991 82.6841981,0.71108991 L86.1597261,0.71108991 C89.2287019,0.71108991 91.0806512,2.02088237 91.0806512,5.7036327 C91.0806512,7.90363135 90.3197083,9.28773222 89.0257546,10.0045521 L91.4613418,17.2711884 C91.5117499,17.3946087 91.4613418,17.5186696 91.3342258,17.5186696 L88.974689,17.5186696 L88.974689,17.5182425 Z" id="Fill-19"></path>
                <path d="M98.2081534,11.6606157 L97.0365956,5.40709932 L96.9632283,5.40709932 L95.7436023,11.6606157 L98.2081534,11.6606157 Z M95.7187249,0.957933621 C95.7676364,0.809741981 95.8407929,0.71108991 95.9873167,0.71108991 L98.0371739,0.71108991 C98.1836977,0.71108991 98.2815207,0.809528449 98.305344,0.957933621 L101.819174,17.2713988 C101.843419,17.4195905 101.770684,17.5186696 101.623739,17.5186696 L99.5500583,17.5186696 C99.3786571,17.5186696 99.3059223,17.4200175 99.2814665,17.2713988 L98.6228474,13.8854121 L95.3284867,13.8854121 L94.6698676,17.2713988 C94.6454118,17.4195905 94.5720445,17.5186696 94.4010649,17.5186696 L92.3273845,17.5186696 C92.1806498,17.5186696 92.1077042,17.4200175 92.1315275,17.2713988 L95.7187249,0.957933621 Z" id="Fill-21"></path>
                <path d="M106.046842,15.1210949 L107.162185,15.1210949 C108.147577,15.1210949 108.718468,14.7503975 109.029232,13.9099225 C109.236706,13.2919512 109.340667,12.4762462 109.340667,9.11477299 C109.340667,5.75308622 109.236706,4.93759478 109.029232,4.31962352 C108.718468,3.47893491 108.147577,3.10845111 107.162185,3.10845111 L106.046842,3.10845111 C105.943552,3.10845111 105.891348,3.15799131 105.891348,3.25664463 L105.891348,14.9729014 C105.891348,15.0715547 105.943328,15.1210949 106.046842,15.1210949 Z M103.116656,0.957936757 C103.116656,0.809743235 103.219945,0.71108991 103.376111,0.71108991 L107.447182,0.71108991 C109.754944,0.71108991 111.104201,1.60089165 111.7264,3.40505169 C112.037836,4.31962352 112.166891,5.45669918 112.166891,9.11477299 C112.166891,12.7728468 112.037836,13.9099225 111.7264,14.8242808 C111.104201,16.6286543 109.755392,17.5186696 107.447182,17.5186696 L103.376111,17.5186696 C103.220169,17.5186696 103.116656,17.4198027 103.116656,17.2711822 L103.116656,0.957936757 Z" id="Fill-23"></path>
                <path d="M113.459782,0.958153431 C113.459782,0.809958026 113.563787,0.71108991 113.719347,0.71108991 L120.957562,0.71108991 C121.11357,0.71108991 121.217127,0.80953095 121.217127,0.958153431 L121.217127,2.86141805 C121.217127,3.00961345 121.113794,3.1086951 120.957562,3.1086951 L116.39165,3.1086951 C116.287869,3.1086951 116.235866,3.15823593 116.235866,3.25689051 L116.235866,7.68097177 C116.235866,7.78005342 116.287869,7.82938071 116.39165,7.82938071 L120.335325,7.82938071 C120.490884,7.82938071 120.594217,7.92803529 120.594217,8.07665777 L120.594217,9.97992239 C120.594217,10.1281178 120.490884,10.2271994 120.335325,10.2271994 L116.39165,10.2271994 C116.287869,10.2271994 116.235866,10.2765267 116.235866,10.3753949 L116.235866,14.972869 C116.235866,15.0715236 116.287869,15.1210644 116.39165,15.1210644 L120.957562,15.1210644 C121.11357,15.1210644 121.217127,15.2195055 121.217127,15.3683415 L121.217127,17.2713925 C121.217127,17.419588 121.113794,17.5186696 120.957562,17.5186696 L113.719347,17.5186696 C113.563787,17.5186696 113.459782,17.4198015 113.459782,17.2713925 L113.459782,0.958153431 Z" id="Fill-25"></path>
                <path d="M127.799316,5.7036327 C127.799316,3.72634575 127.139813,3.10860372 125.618069,3.10860372 L124.730184,3.10860372 C124.628486,3.10860372 124.578076,3.15814266 124.578076,3.25679348 L124.578076,8.15047193 C124.578076,8.2495498 124.628048,8.29887521 124.730184,8.29887521 L125.618069,8.29887521 C127.139594,8.29887521 127.799316,7.7054756 127.799316,5.7036327 Z M128.408627,17.5182425 C128.25608,17.5182425 128.180245,17.4687036 128.129396,17.3452833 L126.023546,10.6466366 L125.592645,10.6466366 L124.730184,10.6466366 C124.628486,10.6466366 124.578076,10.6961755 124.578076,10.7950398 L124.578076,17.2705479 C124.578076,17.4189511 124.476378,17.518029 124.324269,17.518029 L122.116721,17.518029 C121.964613,17.518029 121.863572,17.4191647 121.863572,17.2705479 L121.863572,0.958144014 C121.863572,0.809954258 121.964613,0.71108991 122.116721,0.71108991 L125.592426,0.71108991 C128.661557,0.71108991 130.513381,2.02088237 130.513381,5.7036327 C130.513381,7.90363135 129.752619,9.28773222 128.4586,10.0045521 L130.89431,17.2711884 C130.945159,17.3946087 130.89431,17.5186696 130.767845,17.5186696 L128.408627,17.5186696 L128.408627,17.5182425 Z" id="Fill-27"></path>
                <path d="M2.41957014,26.2207385 C3.43848955,26.2207385 3.9879261,25.7236002 3.9879261,24.8084927 L3.9879261,24.7687998 C3.9879261,23.764112 3.38860019,23.3862695 2.41957014,23.3862695 L1.20087543,23.3862695 L1.20087543,26.2207385 L2.41957014,26.2207385 Z M0.331841958,22.6902326 L2.35965933,22.6902326 C3.72823999,22.6902326 4.85695957,23.2869286 4.85695957,24.7687998 L4.85695957,24.8084927 C4.85695957,26.3200794 3.71821855,26.9070148 2.35965933,26.9070148 L1.20087543,26.9070148 L1.20087543,29.8011317 L0.331841958,29.8011317 L0.331841958,22.6902326 Z" id="Fill-29"></path>
                <path d="M8.61556664,27.9656709 L8.61556664,27.3443995 L7.95055933,27.3443995 C6.98104232,27.3443995 6.26991548,27.5926996 6.26991548,28.3288436 C6.26991548,28.8450409 6.50997869,29.1700617 7.18425018,29.1700617 C7.99688025,29.1700617 8.61556664,28.7399668 8.61556664,27.9656709 M5.50340494,28.3288436 C5.50340494,27.1721948 6.6855954,26.7802518 7.92296817,26.7802518 L8.61556664,26.7802518 L8.61556664,26.417079 C8.61556664,25.6236029 8.32011972,25.288992 7.58120033,25.288992 C6.91619303,25.288992 6.54703543,25.5758609 6.47312335,26.1875422 L5.70661281,26.1875422 C5.80831744,25.0500735 6.6855954,24.6295687 7.61805568,24.6295687 C8.54165456,24.6295687 9.38207718,25.0213032 9.38207718,26.417079 L9.38207718,29.7150293 L8.61556664,29.7150293 L8.61556664,29.0841678 C8.25527043,29.5524147 7.82146494,29.8011317 7.1103381,29.8011317 C6.21453177,29.8011317 5.50340494,29.3516481 5.50340494,28.3288436" id="Fill-31"></path>
                <path d="M11.3214133,24.7171289 L12.1631413,24.7171289 L12.1631413,25.6308925 C12.4977537,25.0571931 12.9542242,24.6588261 13.9071948,24.6295687 L13.9071948,25.3879289 C12.8425393,25.4364792 12.1631413,25.7572506 12.1631413,27.0112905 L12.1631413,29.8011317 L11.3214133,29.8011317 L11.3214133,24.7171289 Z" id="Fill-33"></path>
                <path d="M15.2292171,28.426474 L15.2292171,25.2192291 L14.5536402,25.2192291 L14.5536402,24.5219075 L15.2292171,24.5219075 L15.2292171,23.336678 L15.9771071,23.336678 L15.9771071,24.5219075 L17.0763442,24.5219075 L17.0763442,25.2192291 L15.9771071,25.2192291 L15.9771071,28.3469663 C15.9771071,28.8548597 16.1842211,29.1038101 16.5628822,29.1038101 C16.7971136,29.1038101 16.9773068,29.0640562 17.1394217,28.9943241 L17.1394217,29.6916457 C16.9861494,29.7513851 16.8061528,29.8011317 16.4996083,29.8011317 C15.6436417,29.8011317 15.2292171,29.2432744 15.2292171,28.426474" id="Fill-35"></path>
                <path d="M24.6779929,27.2582971 L24.6779929,27.191375 C24.6779929,26.0347261 24.0038991,25.288992 22.95743,25.288992 C21.9010865,25.288992 21.2370866,26.0347261 21.2370866,27.1817849 L21.2370866,27.2582971 C21.2370866,28.3959743 21.8909926,29.1414999 22.95743,29.1414999 C24.013993,29.1414999 24.6779929,28.3863842 24.6779929,27.2582971 M20.3716485,27.2582971 L20.3716485,27.1817849 C20.3716485,25.680935 21.4685869,24.6295687 22.95743,24.6295687 C24.4464926,24.6295687 25.5432115,25.6713449 25.5432115,27.1721948 L25.5432115,27.2487071 C25.5432115,28.759147 24.4464926,29.8011317 22.9475556,29.8011317 C21.4481797,29.8011317 20.3716485,28.7207866 20.3716485,27.2582971" id="Fill-37"></path>
                <path d="M27.6632867,25.2727802 L26.8361022,25.2727802 L26.8361022,24.573176 L27.6632867,24.573176 L27.6632867,23.7233606 C27.6632867,22.6638167 28.2371188,22.0437872 29.3843019,22.0437872 C29.6821653,22.0437872 29.8366308,22.073873 30.0683291,22.1438553 L30.0683291,22.8436775 C29.9030366,22.7837239 29.6710977,22.7335809 29.4175048,22.7335809 C28.821778,22.7335809 28.5790121,23.1035492 28.5790121,23.6333212 L28.5790121,24.573176 L29.9910964,24.573176 L29.9910964,25.2727802 L28.5790121,25.2727802 L28.5790121,29.8011317 L27.6632867,29.8011317 L27.6632867,25.2727802 Z" id="Fill-39"></path>
                <path d="M34.3453651,27.0662206 L36.7420819,27.0662206 L35.5438289,23.4062245 L34.3453651,27.0662206 Z M35.0314361,22.6902326 L36.1333652,22.6902326 L38.472119,29.8011317 L37.6410351,29.8011317 L36.964449,27.7524969 L34.1133024,27.7524969 L33.4466227,29.8011317 L32.6541106,29.8011317 L35.0314361,22.6902326 Z" id="Fill-41"></path>
                <path d="M39.1185643,27.2678872 L39.1185643,27.191375 C39.1185643,25.6619633 40.1843894,24.6295687 41.4932723,24.6295687 C42.5124025,24.6295687 43.4660784,25.1076141 43.6157466,26.3789271 L42.849054,26.3789271 C42.7275251,25.585451 42.1665752,25.2892005 41.4932723,25.2892005 C40.6052547,25.2892005 39.922572,26.0155459 39.922572,27.191375 L39.922572,27.2678872 C39.922572,28.4914583 40.5771154,29.1414999 41.5214116,29.1414999 C42.2132701,29.1414999 42.8396742,28.7305852 42.9238881,27.9179289 L43.6436819,27.9179289 C43.5409125,28.998274 42.6900061,29.8011317 41.5120318,29.8011317 C40.1468704,29.8011317 39.1185643,28.8164791 39.1185643,27.2678872" id="Fill-43"></path>
                <path d="M44.9365727,27.2678872 L44.9365727,27.191375 C44.9365727,25.6619633 46.0023977,24.6295687 47.3112807,24.6295687 C48.3304109,24.6295687 49.2840868,25.1076141 49.433755,26.3789271 L48.6670624,26.3789271 C48.5455334,25.585451 47.9845836,25.2892005 47.3112807,25.2892005 C46.423263,25.2892005 45.7405804,26.0155459 45.7405804,27.191375 L45.7405804,27.2678872 C45.7405804,28.4914583 46.3951238,29.1414999 47.3394199,29.1414999 C48.0312784,29.1414999 48.6576826,28.7305852 48.7418964,27.9179289 L49.4616903,27.9179289 C49.3589209,28.998274 48.5080144,29.8011317 47.3300402,29.8011317 C45.9648787,29.8011317 44.9365727,28.8164791 44.9365727,27.2678872" id="Fill-45"></path>
                <path d="M54.478258,26.7325098 C54.4030072,25.7001152 53.874813,25.288992 53.0641201,25.288992 C52.262885,25.288992 51.7254387,25.8433412 51.5934415,26.7325098 L54.478258,26.7325098 Z M50.754581,27.2676788 L50.754581,27.191375 C50.754581,25.680935 51.7067288,24.6295687 53.0641201,24.6295687 C54.2048059,24.6295687 55.2796987,25.3273524 55.2796987,27.1148627 L55.2796987,27.3729613 L51.5652739,27.3729613 C51.6031048,28.51043 52.1403456,29.1414999 53.1490342,29.1414999 C53.9126439,29.1414999 54.3557185,28.854631 54.4595481,28.2715115 L55.2418677,28.2715115 C55.0722452,29.2753443 54.2520946,29.8011317 53.1395765,29.8011317 C51.7443541,29.8011317 50.754581,28.806889 50.754581,27.2676788 Z" id="Fill-47"></path>
                <path d="M56.5725894,24.7171289 L57.4360939,24.7171289 L57.4360939,25.5240394 C57.6856617,25.0476527 58.289162,24.6295687 59.183749,24.6295687 C60.3072578,24.6295687 61.097707,25.2030561 61.097707,26.6807667 L61.097707,29.8011317 L60.2344294,29.8011317 L60.2344294,26.6224639 C60.2344294,25.7279932 59.8287683,25.3294141 58.9548273,25.3294141 C58.1537147,25.3294141 57.4360939,25.8058009 57.4360939,26.7197765 L57.4360939,29.8011317 L56.5725894,29.8011317 L56.5725894,24.7171289 Z" id="Fill-49"></path>
                <path d="M62.4199258,28.426474 L62.4199258,25.2192291 L61.7441524,25.2192291 L61.7441524,24.5219075 L62.4199258,24.5219075 L62.4199258,23.336678 L63.1678158,23.336678 L63.1678158,24.5219075 L64.267053,24.5219075 L64.267053,25.2192291 L63.1678158,25.2192291 L63.1678158,28.3469663 C63.1678158,28.8548597 63.3751263,29.1038101 63.7533944,29.1038101 C63.9876258,29.1038101 64.167819,29.0640562 64.3299339,28.9943241 L64.3299339,29.6916457 C64.1768581,29.7513851 63.996665,29.8011317 63.6905135,29.8011317 C62.8343504,29.8011317 62.4199258,29.2432744 62.4199258,28.426474" id="Fill-51"></path>
                <path d="M65.6228246,27.8471145 L65.6228246,24.6295687 L66.4943254,24.6295687 L66.4943254,27.8083182 C66.4943254,28.7025403 66.9037429,29.101103 67.7647106,29.101103 C68.5416423,29.101103 69.2766705,28.6247357 69.2766705,27.7110096 L69.2766705,24.6295687 L70.1479422,24.6295687 L70.1479422,29.7135751 L69.2766705,29.7135751 L69.2766705,28.9066976 C69.0245627,29.3830649 68.4157028,29.8011317 67.533669,29.8011317 C66.4416598,29.8011317 65.6228246,29.2469599 65.6228246,27.8471145" id="Fill-53"></path>
                <path d="M71.440833,24.7171289 L72.282561,24.7171289 L72.282561,25.6308925 C72.6171734,25.0571931 73.0736439,24.6588261 74.0266145,24.6295687 L74.0266145,25.3879289 C72.9621801,25.4364792 72.282561,25.7572506 72.282561,27.0112905 L72.282561,29.8011317 L71.440833,29.8011317 L71.440833,24.7171289 Z" id="Fill-55"></path>
                <path d="M78.3969059,26.7325098 C78.3214462,25.7001152 77.7934336,25.288992 76.9827039,25.288992 C76.1814324,25.288992 75.6439616,25.8433412 75.512164,26.7325098 L78.3969059,26.7325098 Z M74.6730598,27.2676788 L74.6730598,27.191375 C74.6730598,25.680935 75.6252508,24.6295687 76.9827039,24.6295687 C78.1236471,24.6295687 79.1981775,25.3273524 79.1981775,27.1148627 L79.1981775,27.3729613 L75.4835839,27.3729613 C75.5216222,28.51043 76.0588874,29.1414999 77.0676218,29.1414999 C77.8312662,29.1414999 78.274361,28.854631 78.3779896,28.2715115 L79.1605504,28.2715115 C78.9909202,29.2753443 78.1707323,29.8011317 77.0581636,29.8011317 C75.6626723,29.8011317 74.6730598,28.806889 74.6730598,27.2676788 Z" id="Fill-57"></path>
                <polygon id="Fill-59" points="83.0768497 29.8011317 83.7232951 29.8011317 83.7232951 22.6902326 83.0768497 22.6902326"></polygon>
                <path d="M86.3090766,24.7171289 L87.1727646,24.7171289 L87.1727646,25.5240394 C87.4223199,25.0476527 88.0255631,24.6295687 88.9203321,24.6295687 C90.0435577,24.6295687 90.8341942,25.2030561 90.8341942,26.6807667 L90.8341942,29.8011317 L89.9709598,29.8011317 L89.9709598,26.6224639 C89.9709598,25.7279932 89.5653191,25.3294141 88.6914219,25.3294141 C87.8905763,25.3294141 87.1727646,25.8058009 87.1727646,26.7197765 L87.1727646,29.8011317 L86.3090766,29.8011317 L86.3090766,24.7171289 Z" id="Fill-61"></path>
                <path d="M92.1562165,28.426474 L92.1562165,25.2192291 L91.4806395,25.2192291 L91.4806395,24.5219075 L92.1562165,24.5219075 L92.1562165,23.336678 L92.9041065,23.336678 L92.9041065,24.5219075 L94.0033436,24.5219075 L94.0033436,25.2192291 L92.9041065,25.2192291 L92.9041065,28.3469663 C92.9041065,28.8548597 93.111417,29.1038101 93.4896851,29.1038101 C93.724113,29.1038101 93.9043061,29.0640562 94.066421,28.9943241 L94.066421,29.6916457 C93.9131488,29.7513851 93.7329556,29.8011317 93.4268041,29.8011317 C92.5706411,29.8011317 92.1562165,29.2432744 92.1562165,28.426474" id="Fill-62"></path>
                <path d="M99.0831579,26.7325098 C99.0076981,25.7001152 98.4796855,25.288992 97.6689558,25.288992 C96.8676843,25.288992 96.3302135,25.8433412 96.198416,26.7325098 L99.0831579,26.7325098 Z M95.3593118,27.2676788 L95.3593118,27.191375 C95.3593118,25.680935 96.3115028,24.6295687 97.6689558,24.6295687 C98.809899,24.6295687 99.8844294,25.3273524 99.8844294,27.1148627 L99.8844294,27.3729613 L96.1698358,27.3729613 C96.2078741,28.51043 96.7451393,29.1414999 97.7538737,29.1414999 C98.5175182,29.1414999 98.9606129,28.854631 99.0642415,28.2715115 L99.8468023,28.2715115 C99.6771721,29.2753443 98.8567786,29.8011317 97.7444156,29.8011317 C96.3489242,29.8011317 95.3593118,28.806889 95.3593118,27.2676788 Z" id="Fill-63"></path>
                <path d="M101.17732,24.7171289 L102.019048,24.7171289 L102.019048,25.6308925 C102.353661,25.0571931 102.810131,24.6588261 103.763102,24.6295687 L103.763102,25.3879289 C102.698667,25.4364792 102.019048,25.7572506 102.019048,27.0112905 L102.019048,29.8011317 L101.17732,29.8011317 L101.17732,24.7171289 Z" id="Fill-64"></path>
                <path d="M107.521669,27.9656709 L107.521669,27.3443995 L106.856627,27.3443995 C105.887261,27.3443995 105.176097,27.5926996 105.176097,28.3288436 C105.176097,28.8450409 105.416173,29.1700617 106.090278,29.1700617 C106.903152,29.1700617 107.521669,28.7399668 107.521669,27.9656709 M104.409547,28.3288436 C104.409547,27.1721948 105.591597,26.7802518 106.829236,26.7802518 L107.521669,26.7802518 L107.521669,26.417079 C107.521669,25.6236029 107.226207,25.288992 106.48745,25.288992 C105.822408,25.288992 105.45303,25.5758609 105.379114,26.1875422 L104.612765,26.1875422 C104.714475,25.0500735 105.591597,24.6295687 106.524509,24.6295687 C107.447753,24.6295687 108.288219,25.0213032 108.288219,26.417079 L108.288219,29.7150293 L107.521669,29.7150293 L107.521669,29.0841678 C107.161555,29.5524147 106.727727,29.8011317 106.016564,29.8011317 C105.120711,29.8011317 104.409547,29.3516481 104.409547,28.3288436" id="Fill-65"></path>
                <path d="M109.58111,27.2678872 L109.58111,27.191375 C109.58111,25.6619633 110.646935,24.6295687 111.955818,24.6295687 C112.975152,24.6295687 113.928624,25.1076141 114.078496,26.3789271 L113.311804,26.3789271 C113.190071,25.585451 112.629121,25.2892005 111.955818,25.2892005 C111.067596,25.2892005 110.384914,26.0155459 110.384914,27.191375 L110.384914,27.2678872 C110.384914,28.4914583 111.039661,29.1414999 111.983957,29.1414999 C112.675816,29.1414999 113.30222,28.7305852 113.38623,27.9179289 L114.106228,27.9179289 C114.003458,28.998274 113.152756,29.8011317 111.974577,29.8011317 C110.60962,29.8011317 109.58111,28.8164791 109.58111,27.2678872" id="Fill-66"></path>
                <path d="M115.42825,28.426474 L115.42825,25.2192291 L114.752673,25.2192291 L114.752673,24.5219075 L115.42825,24.5219075 L115.42825,23.336678 L116.17614,23.336678 L116.17614,24.5219075 L117.275377,24.5219075 L117.275377,25.2192291 L116.17614,25.2192291 L116.17614,28.3469663 C116.17614,28.8548597 116.383254,29.1038101 116.761718,29.1038101 C116.996146,29.1038101 117.17634,29.0640562 117.338454,28.9943241 L117.338454,29.6916457 C117.184986,29.7513851 117.004989,29.8011317 116.698838,29.8011317 C115.842674,29.8011317 115.42825,29.2432744 115.42825,28.426474" id="Fill-67"></path>
                <path d="M118.807695,29.8011317 L119.783259,29.8011317 L119.783259,24.7890995 L118.807695,24.7890995 L118.807695,29.8011317 Z M118.631345,23.2173529 C118.631345,22.9299657 118.925347,22.6902326 119.278047,22.6902326 C119.63049,22.6902326 119.924236,22.9299657 119.924236,23.2173529 C119.924236,23.5049491 119.63049,23.7444732 119.278047,23.7444732 C118.925347,23.7444732 118.631345,23.5049491 118.631345,23.2173529 Z" id="Fill-68"></path>
                <polygon id="Fill-69" points="120.570681 24.6295687 121.412208 24.6295687 122.861379 28.9706192 124.291791 24.6295687 125.095799 24.6295687 123.338115 29.8011317 122.347124 29.8011317"></polygon>
                <path d="M129.46609,26.7325098 C129.390631,25.7001152 128.862618,25.288992 128.051888,25.288992 C127.250617,25.288992 126.713146,25.8433412 126.581348,26.7325098 L129.46609,26.7325098 Z M125.742244,27.2676788 L125.742244,27.191375 C125.742244,25.680935 126.694435,24.6295687 128.051888,24.6295687 C129.192626,24.6295687 130.267362,25.3273524 130.267362,27.1148627 L130.267362,27.3729613 L126.552768,27.3729613 C126.590807,28.51043 127.128072,29.1414999 128.136806,29.1414999 C128.900451,29.1414999 129.343545,28.854631 129.447174,28.2715115 L130.229735,28.2715115 C130.060105,29.2753443 129.239917,29.8011317 128.127348,29.8011317 C126.731857,29.8011317 125.742244,28.806889 125.742244,27.2676788 Z" id="Fill-70"></path>
            </g>
        </g>
    </g>
</svg>